G04 #@! TF.GenerationSoftware,KiCad,Pcbnew,10.0.4-1.fc44*
G04 #@! TF.CreationDate,2026-06-27T19:13:49+03:00*
G04 #@! TF.ProjectId,Error_amp_board,4572726f-725f-4616-9d70-5f626f617264,1.1*
G04 #@! TF.SameCoordinates,Original*
G04 #@! TF.FileFunction,Soldermask,Top*
G04 #@! TF.FilePolarity,Negative*
%FSLAX46Y46*%
G04 Gerber Fmt 4.6, Leading zero omitted, Abs format (unit mm)*
G04 Created by KiCad (PCBNEW 10.0.4-1.fc44) date 2026-06-27 19:13:49*
%MOMM*%
%LPD*%
G01*
G04 APERTURE LIST*
G04 Aperture macros list*
%AMRoundRect*
0 Rectangle with rounded corners*
0 $1 Rounding radius*
0 $2 $3 $4 $5 $6 $7 $8 $9 X,Y pos of 4 corners*
0 Add a 4 corners polygon primitive as box body*
4,1,4,$2,$3,$4,$5,$6,$7,$8,$9,$2,$3,0*
0 Add four circle primitives for the rounded corners*
1,1,$1+$1,$2,$3*
1,1,$1+$1,$4,$5*
1,1,$1+$1,$6,$7*
1,1,$1+$1,$8,$9*
0 Add four rect primitives between the rounded corners*
20,1,$1+$1,$2,$3,$4,$5,0*
20,1,$1+$1,$4,$5,$6,$7,0*
20,1,$1+$1,$6,$7,$8,$9,0*
20,1,$1+$1,$8,$9,$2,$3,0*%
G04 Aperture macros list end*
%ADD10RoundRect,0.250000X0.550000X0.550000X-0.550000X0.550000X-0.550000X-0.550000X0.550000X-0.550000X0*%
%ADD11C,1.600000*%
%ADD12RoundRect,0.250001X-0.949999X0.949999X-0.949999X-0.949999X0.949999X-0.949999X0.949999X0.949999X0*%
%ADD13C,2.400000*%
%ADD14RoundRect,0.249999X0.850001X0.850001X-0.850001X0.850001X-0.850001X-0.850001X0.850001X-0.850001X0*%
%ADD15C,2.200000*%
%ADD16R,2.000000X2.000000*%
%ADD17O,2.000000X2.000000*%
%ADD18R,1.500000X1.500000*%
%ADD19C,1.500000*%
%ADD20O,1.600000X1.200000*%
%ADD21C,1.200000*%
%ADD22C,2.340000*%
%ADD23RoundRect,0.250000X-0.750000X0.750000X-0.750000X-0.750000X0.750000X-0.750000X0.750000X0.750000X0*%
%ADD24C,2.000000*%
%ADD25RoundRect,0.249999X-0.850001X0.850001X-0.850001X-0.850001X0.850001X-0.850001X0.850001X0.850001X0*%
%ADD26RoundRect,0.249999X-0.850001X-0.850001X0.850001X-0.850001X0.850001X0.850001X-0.850001X0.850001X0*%
%ADD27R,2.400000X7.900000*%
%ADD28R,2.399998X7.900000*%
G04 APERTURE END LIST*
D10*
X156260686Y-128400000D03*
D11*
X152450686Y-128400000D03*
D12*
X114500000Y-100500000D03*
D13*
X114500000Y-108000000D03*
X168540000Y-112700000D03*
X163460000Y-112700000D03*
X102400000Y-113080000D03*
X102400000Y-108000000D03*
D12*
X114700000Y-118800000D03*
D13*
X114700000Y-126300000D03*
D14*
X158750000Y-103331806D03*
D15*
X153670000Y-103331806D03*
D13*
X173115686Y-102300000D03*
X173115686Y-107380000D03*
X138960000Y-130600000D03*
X144040000Y-130600000D03*
D16*
X125855000Y-131525000D03*
D17*
X130935000Y-131525000D03*
X130935000Y-126445000D03*
X125855000Y-126445000D03*
D18*
X162490716Y-120426372D03*
D19*
X165230716Y-120426372D03*
X167970716Y-120426372D03*
D13*
X128500000Y-111840000D03*
X128500000Y-119460000D03*
D20*
X158309799Y-119000000D03*
D21*
X155769799Y-116460000D03*
X153229799Y-119000000D03*
D22*
X103350000Y-131800000D03*
X100850000Y-121800000D03*
X98350000Y-131800000D03*
D23*
X93600000Y-98282323D03*
D24*
X93600000Y-103282323D03*
D25*
X90500000Y-121000000D03*
D15*
X90500000Y-131160000D03*
D23*
X93700000Y-110532323D03*
D24*
X93700000Y-115532323D03*
D26*
X153642183Y-106981806D03*
D15*
X158722183Y-106981806D03*
D18*
X167950016Y-128076372D03*
D19*
X165210016Y-128076372D03*
X162470016Y-128076372D03*
D14*
X167600000Y-96700000D03*
D15*
X162520000Y-96700000D03*
D13*
X174765686Y-117404151D03*
X174765686Y-132404151D03*
X166365686Y-102839151D03*
X166365686Y-107919151D03*
X102500000Y-97410000D03*
X102500000Y-102490000D03*
X137600000Y-96430000D03*
X137600000Y-124370000D03*
X177315686Y-113044151D03*
X177315686Y-107964151D03*
D14*
X158100000Y-96700000D03*
D15*
X153020000Y-96700000D03*
D13*
X145600000Y-124370000D03*
X145600000Y-96430000D03*
D27*
X108892859Y-140650000D03*
X116828573Y-140650000D03*
X124764287Y-140650000D03*
X132700001Y-140650000D03*
D28*
X140635716Y-140650000D03*
D27*
X148571429Y-140650000D03*
D28*
X156507144Y-140650000D03*
M02*
