G04 #@! TF.GenerationSoftware,KiCad,Pcbnew,10.0.4-1.fc44*
G04 #@! TF.CreationDate,2026-06-27T19:13:49+03:00*
G04 #@! TF.ProjectId,Error_amp_board,4572726f-725f-4616-9d70-5f626f617264,1.1*
G04 #@! TF.SameCoordinates,Original*
G04 #@! TF.FileFunction,Copper,L2,Bot*
G04 #@! TF.FilePolarity,Positive*
%FSLAX46Y46*%
G04 Gerber Fmt 4.6, Leading zero omitted, Abs format (unit mm)*
G04 Created by KiCad (PCBNEW 10.0.4-1.fc44) date 2026-06-27 19:13:49*
%MOMM*%
%LPD*%
G01*
G04 APERTURE LIST*
G04 Aperture macros list*
%AMRoundRect*
0 Rectangle with rounded corners*
0 $1 Rounding radius*
0 $2 $3 $4 $5 $6 $7 $8 $9 X,Y pos of 4 corners*
0 Add a 4 corners polygon primitive as box body*
4,1,4,$2,$3,$4,$5,$6,$7,$8,$9,$2,$3,0*
0 Add four circle primitives for the rounded corners*
1,1,$1+$1,$2,$3*
1,1,$1+$1,$4,$5*
1,1,$1+$1,$6,$7*
1,1,$1+$1,$8,$9*
0 Add four rect primitives between the rounded corners*
20,1,$1+$1,$2,$3,$4,$5,0*
20,1,$1+$1,$4,$5,$6,$7,0*
20,1,$1+$1,$6,$7,$8,$9,0*
20,1,$1+$1,$8,$9,$2,$3,0*%
G04 Aperture macros list end*
G04 #@! TA.AperFunction,ComponentPad*
%ADD10RoundRect,0.250000X0.550000X0.550000X-0.550000X0.550000X-0.550000X-0.550000X0.550000X-0.550000X0*%
G04 #@! TD*
G04 #@! TA.AperFunction,ComponentPad*
%ADD11C,1.600000*%
G04 #@! TD*
G04 #@! TA.AperFunction,ComponentPad*
%ADD12RoundRect,0.250001X-0.949999X0.949999X-0.949999X-0.949999X0.949999X-0.949999X0.949999X0.949999X0*%
G04 #@! TD*
G04 #@! TA.AperFunction,ComponentPad*
%ADD13C,2.400000*%
G04 #@! TD*
G04 #@! TA.AperFunction,ComponentPad*
%ADD14RoundRect,0.249999X0.850001X0.850001X-0.850001X0.850001X-0.850001X-0.850001X0.850001X-0.850001X0*%
G04 #@! TD*
G04 #@! TA.AperFunction,ComponentPad*
%ADD15C,2.200000*%
G04 #@! TD*
G04 #@! TA.AperFunction,ComponentPad*
%ADD16R,2.000000X2.000000*%
G04 #@! TD*
G04 #@! TA.AperFunction,ComponentPad*
%ADD17O,2.000000X2.000000*%
G04 #@! TD*
G04 #@! TA.AperFunction,ComponentPad*
%ADD18R,1.500000X1.500000*%
G04 #@! TD*
G04 #@! TA.AperFunction,ComponentPad*
%ADD19C,1.500000*%
G04 #@! TD*
G04 #@! TA.AperFunction,ComponentPad*
%ADD20O,1.600000X1.200000*%
G04 #@! TD*
G04 #@! TA.AperFunction,ComponentPad*
%ADD21C,1.200000*%
G04 #@! TD*
G04 #@! TA.AperFunction,ComponentPad*
%ADD22C,2.340000*%
G04 #@! TD*
G04 #@! TA.AperFunction,ComponentPad*
%ADD23RoundRect,0.250000X-0.750000X0.750000X-0.750000X-0.750000X0.750000X-0.750000X0.750000X0.750000X0*%
G04 #@! TD*
G04 #@! TA.AperFunction,ComponentPad*
%ADD24C,2.000000*%
G04 #@! TD*
G04 #@! TA.AperFunction,ComponentPad*
%ADD25RoundRect,0.249999X-0.850001X0.850001X-0.850001X-0.850001X0.850001X-0.850001X0.850001X0.850001X0*%
G04 #@! TD*
G04 #@! TA.AperFunction,ComponentPad*
%ADD26RoundRect,0.249999X-0.850001X-0.850001X0.850001X-0.850001X0.850001X0.850001X-0.850001X0.850001X0*%
G04 #@! TD*
G04 #@! TA.AperFunction,ConnectorPad*
%ADD27R,2.400000X7.900000*%
G04 #@! TD*
G04 #@! TA.AperFunction,Conductor*
%ADD28C,1.000000*%
G04 #@! TD*
G04 #@! TA.AperFunction,Conductor*
%ADD29C,1.500000*%
G04 #@! TD*
G04 #@! TA.AperFunction,Conductor*
%ADD30C,2.000000*%
G04 #@! TD*
G04 APERTURE END LIST*
D10*
X156260686Y-128400000D03*
D11*
X152450686Y-128400000D03*
D12*
X114500000Y-100500000D03*
D13*
X114500000Y-108000000D03*
X168540000Y-112700000D03*
X163460000Y-112700000D03*
X102400000Y-113080000D03*
X102400000Y-108000000D03*
D12*
X114700000Y-118800000D03*
D13*
X114700000Y-126300000D03*
D14*
X158750000Y-103331806D03*
D15*
X153670000Y-103331806D03*
D13*
X173115686Y-102300000D03*
X173115686Y-107380000D03*
X138960000Y-130600000D03*
X144040000Y-130600000D03*
D16*
X125855000Y-131525000D03*
D17*
X130935000Y-131525000D03*
X130935000Y-126445000D03*
X125855000Y-126445000D03*
D18*
X162490716Y-120426372D03*
D19*
X165230716Y-120426372D03*
X167970716Y-120426372D03*
D13*
X128500000Y-111840000D03*
X128500000Y-119460000D03*
D20*
X158309799Y-119000000D03*
D21*
X155769799Y-116460000D03*
X153229799Y-119000000D03*
D22*
X103350000Y-131800000D03*
X100850000Y-121800000D03*
X98350000Y-131800000D03*
D23*
X93600000Y-98282323D03*
D24*
X93600000Y-103282323D03*
D25*
X90500000Y-121000000D03*
D15*
X90500000Y-131160000D03*
D23*
X93700000Y-110532323D03*
D24*
X93700000Y-115532323D03*
D26*
X153642183Y-106981806D03*
D15*
X158722183Y-106981806D03*
D18*
X167950016Y-128076372D03*
D19*
X165210016Y-128076372D03*
X162470016Y-128076372D03*
D14*
X167600000Y-96700000D03*
D15*
X162520000Y-96700000D03*
D13*
X174765686Y-117404151D03*
X174765686Y-132404151D03*
X166365686Y-102839151D03*
X166365686Y-107919151D03*
X102500000Y-97410000D03*
X102500000Y-102490000D03*
X137600000Y-96430000D03*
X137600000Y-124370000D03*
X177315686Y-113044151D03*
X177315686Y-107964151D03*
D14*
X158100000Y-96700000D03*
D15*
X153020000Y-96700000D03*
D13*
X145600000Y-124370000D03*
X145600000Y-96430000D03*
D27*
X104925002Y-140650000D03*
X112860716Y-140650000D03*
X120796430Y-140650000D03*
X128732144Y-140650000D03*
X136667858Y-140650000D03*
X144603572Y-140650000D03*
X152539286Y-140650000D03*
X160475000Y-140650000D03*
D28*
X167898516Y-128076372D02*
X167898516Y-127787122D01*
X145482252Y-135417748D02*
X152450686Y-128449314D01*
X153983475Y-126606396D02*
X152635110Y-127954761D01*
X155769799Y-122293938D02*
X155769799Y-116460000D01*
X144603572Y-140700000D02*
X144603572Y-137539069D01*
X152450686Y-128449314D02*
X152450686Y-128400000D01*
X153983475Y-126606396D02*
G75*
G03*
X155769834Y-122293938I-4312275J4312496D01*
G01*
X144603572Y-137539069D02*
G75*
G02*
X145482262Y-135417758I3000028J-31D01*
G01*
X152635110Y-127954761D02*
G75*
G03*
X152450701Y-128400000I445290J-445239D01*
G01*
D29*
X114991723Y-100408880D02*
X114900603Y-100500000D01*
X137774258Y-100600000D02*
X135979899Y-100600000D01*
X145600000Y-96430000D02*
X144015000Y-98015000D01*
X129245729Y-97800000D02*
X121418377Y-97800000D01*
X132600000Y-99200000D02*
X132580675Y-99181380D01*
X114900603Y-100500000D02*
X114500000Y-100500000D01*
X132580675Y-99181380D02*
G75*
G03*
X129245729Y-97799972I-3334975J-3334920D01*
G01*
X121418377Y-97800000D02*
G75*
G03*
X114991754Y-100408912I723J-9221700D01*
G01*
X144015000Y-98015000D02*
G75*
G02*
X137774258Y-100599983I-6240700J6240700D01*
G01*
X135979899Y-100600000D02*
G75*
G02*
X132600000Y-99200000I1J4779900D01*
G01*
D30*
X114900000Y-108000000D02*
X124846791Y-117946791D01*
X114500000Y-108000000D02*
X114900000Y-108000000D01*
X124846791Y-117946791D02*
G75*
G03*
X128500000Y-119460005I3653209J3653191D01*
G01*
D29*
X93415513Y-134075513D02*
X90500000Y-131160000D01*
X104925002Y-140700000D02*
X104925002Y-137196756D01*
X104925002Y-140700000D02*
X104925002Y-137482899D01*
X104935000Y-140700000D02*
X104935000Y-137458762D01*
X103146447Y-135400000D02*
X96613024Y-135400000D01*
X104450000Y-136050000D02*
X104262132Y-135862132D01*
X104925002Y-137196756D02*
G75*
G03*
X104449987Y-136050013I-1621802J-44D01*
G01*
X96613024Y-135400000D02*
G75*
G02*
X93415497Y-134075529I-24J4521900D01*
G01*
X104925002Y-137482899D02*
G75*
G02*
X104935008Y-137458770I34098J-1D01*
G01*
X104262132Y-135862132D02*
G75*
G03*
X103146447Y-135399962I-1115732J-1115668D01*
G01*
X121219061Y-128119061D02*
X123755258Y-130655259D01*
D30*
X128140509Y-135840509D02*
X127290427Y-134990427D01*
X128732144Y-137268842D02*
X128732144Y-140700000D01*
D29*
X115000000Y-118800000D02*
X114700000Y-118800000D01*
X119027030Y-122827030D02*
X115000000Y-118800000D01*
X121219061Y-128119061D02*
G75*
G02*
X119968519Y-125100000I3019039J3019061D01*
G01*
X125855000Y-131525000D02*
G75*
G02*
X123755255Y-130655262I0J2969500D01*
G01*
X119968525Y-125100000D02*
G75*
G03*
X119027022Y-122827038I-3214425J0D01*
G01*
D30*
X128140509Y-135840509D02*
G75*
G02*
X128732121Y-137268842I-1428309J-1428291D01*
G01*
X127290427Y-134990427D02*
G75*
G02*
X125854984Y-131525000I3465373J3465427D01*
G01*
X109831371Y-127231371D02*
X111000000Y-128400000D01*
X153020000Y-96940000D02*
X153020000Y-96700000D01*
X152990000Y-101000000D02*
X152990000Y-96970000D01*
X152990000Y-103983892D02*
X152990000Y-101000000D01*
D28*
X162470016Y-128076372D02*
X162490716Y-128055672D01*
D30*
X151521576Y-105235230D02*
X149900000Y-106856806D01*
X108700000Y-123979899D02*
X108700000Y-124500000D01*
X106999540Y-114377094D02*
X106999540Y-118973532D01*
X152990000Y-96970000D02*
X153020000Y-96940000D01*
X120954416Y-104200000D02*
X119700000Y-104200000D01*
X131036918Y-109350535D02*
X128547453Y-111840000D01*
X103600000Y-117474829D02*
X104583598Y-117474829D01*
X132194730Y-106008278D02*
X149200000Y-106008278D01*
X109831371Y-124000000D02*
X109831371Y-127231371D01*
X96727971Y-99577971D02*
X97617675Y-100467675D01*
X108942639Y-104757360D02*
X109500000Y-104200000D01*
D28*
X153642183Y-107043989D02*
X153642183Y-106856806D01*
D30*
X102437258Y-117600000D02*
X103683540Y-117600000D01*
X130600000Y-105900000D02*
X130600000Y-106770152D01*
D28*
X162490716Y-120426372D02*
X162490716Y-128026398D01*
D30*
X107900000Y-109200000D02*
X107900000Y-117627208D01*
X153642183Y-106856806D02*
X151800000Y-106856806D01*
X107590811Y-106109188D02*
X107000000Y-106700000D01*
X109000000Y-106000000D02*
X107900000Y-107100000D01*
X119018913Y-133718913D02*
X120018613Y-134718613D01*
X132909934Y-106856806D02*
X147700000Y-106856806D01*
X107000000Y-109447307D02*
X107000000Y-114310051D01*
X128500000Y-107955635D02*
X128500000Y-111840000D01*
X105419152Y-104891100D02*
X105419152Y-104731111D01*
X99048529Y-117600000D02*
X102437258Y-117600000D01*
X109831371Y-122289950D02*
X109831371Y-124000000D01*
X152028630Y-105975098D02*
X152803729Y-105200000D01*
X126944365Y-104200000D02*
X123500000Y-104200000D01*
X107000000Y-114310051D02*
X106999540Y-114377094D01*
X109810050Y-105189949D02*
X109384925Y-105615074D01*
X107900000Y-107100000D02*
X107900000Y-109200000D01*
X93034924Y-119950000D02*
X94406497Y-119950000D01*
X153670000Y-103331806D02*
X153642183Y-103359623D01*
X107792893Y-104907107D02*
X107000000Y-105700000D01*
X131036918Y-109350000D02*
X131036918Y-109350535D01*
X107000000Y-106700000D02*
X107000000Y-108000000D01*
X120796430Y-136596430D02*
X120796430Y-140700000D01*
X109810050Y-105189949D02*
X109000000Y-106000000D01*
X111000000Y-128400000D02*
X114451472Y-131851472D01*
X125300000Y-106000000D02*
X123500000Y-104200000D01*
X107000000Y-104200000D02*
X107000000Y-105700000D01*
X129152044Y-104747956D02*
X129152044Y-110265827D01*
D28*
X154773438Y-110073442D02*
X155028379Y-110328379D01*
D30*
X106628305Y-104200000D02*
X107000000Y-104200000D01*
X102821800Y-102811799D02*
X102500000Y-102490000D01*
X127882230Y-106015179D02*
X128267051Y-106400000D01*
X106999540Y-114377094D02*
X106999540Y-115453305D01*
X149200000Y-106008278D02*
X150748528Y-106008278D01*
X147700000Y-106856806D02*
X148700000Y-106856806D01*
X109831371Y-124000000D02*
X109831371Y-125578680D01*
D28*
X153642183Y-106981806D02*
X153642183Y-107342391D01*
D30*
X119700000Y-104200000D02*
X112200000Y-104200000D01*
X102500000Y-102490000D02*
X105262421Y-105252420D01*
D28*
X155028379Y-110328379D02*
X160627025Y-115927024D01*
D30*
X123500000Y-104200000D02*
X120954416Y-104200000D01*
X149900000Y-106856806D02*
X147700000Y-106856806D01*
X150748528Y-106008278D02*
X151521576Y-105235230D01*
X96700000Y-119000000D02*
X97429289Y-118270711D01*
X107000000Y-108000000D02*
X107000000Y-109447307D01*
D28*
X151925000Y-106981806D02*
X151800000Y-106856806D01*
D30*
X109500000Y-104200000D02*
X107000000Y-104200000D01*
X153642183Y-103359623D02*
X153642183Y-106856806D01*
D28*
X153642547Y-106857170D02*
X153642183Y-106856806D01*
D30*
X130600000Y-105900000D02*
X130282843Y-105582843D01*
X152196657Y-104396657D02*
X151564405Y-105028909D01*
D29*
X90500000Y-121000000D02*
X90700000Y-121000000D01*
D30*
X128547453Y-111840000D02*
X128500000Y-111840000D01*
X106300000Y-118185786D02*
X106300000Y-116000000D01*
X126633238Y-107333238D02*
X125300000Y-106000000D01*
X151800000Y-106856806D02*
X149900000Y-106856806D01*
X106999540Y-110829538D02*
X106999540Y-114377094D01*
X121680244Y-105020244D02*
X128500000Y-111840000D01*
X109000000Y-106000000D02*
X107000000Y-108000000D01*
X152990000Y-101000000D02*
X152990000Y-101690141D01*
X112200000Y-104200000D02*
X109500000Y-104200000D01*
X116500000Y-132700000D02*
X116560338Y-132700538D01*
D28*
X153642183Y-106981806D02*
X151925000Y-106981806D01*
D30*
X107000000Y-105700000D02*
X107000000Y-106700000D01*
X96727971Y-99577971D02*
G75*
G03*
X93600000Y-98282311I-3127971J-3127929D01*
G01*
X129152044Y-104747956D02*
G75*
G03*
X132194730Y-106008265I3042656J3042656D01*
G01*
X125300000Y-106000000D02*
G75*
G03*
X120954416Y-104199994I-4345600J-4345600D01*
G01*
X152990000Y-101690141D02*
G75*
G02*
X151521553Y-105235207I-5013500J41D01*
G01*
X151564405Y-105028909D02*
G75*
G02*
X149200000Y-106008276I-2364405J2364409D01*
G01*
X108700000Y-124500000D02*
G75*
G03*
X109831380Y-127231362I3862700J0D01*
G01*
X116560338Y-132700538D02*
G75*
G02*
X119018896Y-133718930I-38J-3476962D01*
G01*
X152990000Y-101690141D02*
G75*
G03*
X153670013Y-103331793I2321700J41D01*
G01*
X112200000Y-104200000D02*
G75*
G03*
X107590807Y-106109184I0J-6518400D01*
G01*
X126944365Y-104200000D02*
G75*
G02*
X128499966Y-107955635I-3755665J-3755600D01*
G01*
X137056021Y-106856806D02*
G75*
G03*
X131036908Y-109349990I-21J-8512294D01*
G01*
X106999540Y-115453305D02*
G75*
G03*
X108800001Y-119799999I6147160J5D01*
G01*
X109384925Y-105615074D02*
G75*
G03*
X107899985Y-109200000I3584875J-3584926D01*
G01*
X94406497Y-119950000D02*
G75*
G03*
X96700001Y-119000001I3J3243500D01*
G01*
X132909934Y-106856806D02*
G75*
G02*
X130599990Y-105900010I-34J3266706D01*
G01*
X102500000Y-102490000D02*
G75*
G03*
X106628305Y-104199998I4128300J4128300D01*
G01*
X149900000Y-106856806D02*
G75*
G03*
X152028624Y-105975092I0J3010306D01*
G01*
X123500000Y-104200000D02*
G75*
G02*
X127882228Y-106015181I0J-6197400D01*
G01*
X119700000Y-104200000D02*
G75*
G02*
X121680247Y-105020241I0J-2800500D01*
G01*
X129152044Y-110265827D02*
G75*
G02*
X128499992Y-111839992I-2226244J27D01*
G01*
X151800000Y-106856806D02*
G75*
G03*
X152989998Y-103983892I-2872900J2872906D01*
G01*
X126633238Y-107333238D02*
G75*
G02*
X128500007Y-111840000I-4506738J-4506762D01*
G01*
X107000000Y-109447307D02*
G75*
G02*
X108942633Y-104757354I6632600J7D01*
G01*
X102437258Y-117600000D02*
G75*
G03*
X106300012Y-116000012I42J5462700D01*
G01*
X105262421Y-105252420D02*
G75*
G02*
X106999985Y-109447307I-4194921J-4194880D01*
G01*
X130282843Y-105582843D02*
G75*
G03*
X126944365Y-104200019I-3338443J-3338457D01*
G01*
X107900000Y-117627208D02*
G75*
G03*
X108800002Y-119799998I3072800J8D01*
G01*
X112200000Y-104200000D02*
G75*
G03*
X109810050Y-105189949I0J-3379900D01*
G01*
X109831371Y-125578680D02*
G75*
G03*
X110999994Y-128400006I3989929J-20D01*
G01*
X120018613Y-134718613D02*
G75*
G02*
X120796410Y-136596430I-1877813J-1877787D01*
G01*
X103683540Y-117600000D02*
G75*
G02*
X106999513Y-118973559I-40J-4689500D01*
G01*
X148700000Y-106856806D02*
G75*
G03*
X150748518Y-106008268I0J2897006D01*
G01*
D28*
X162490716Y-128026398D02*
G75*
G02*
X162470026Y-128076382I-70716J-2D01*
G01*
D30*
X104583598Y-117474829D02*
G75*
G02*
X106300003Y-118185783I2J-2427371D01*
G01*
X106300000Y-118185786D02*
G75*
G02*
X108700005Y-123979899I-5794100J-5794114D01*
G01*
D28*
X153642183Y-107342391D02*
G75*
G03*
X154773440Y-110073440I3862217J-9D01*
G01*
X160627025Y-115927024D02*
G75*
G02*
X162490742Y-120426372I-4499325J-4499376D01*
G01*
D30*
X108800000Y-119800000D02*
G75*
G02*
X109831392Y-122289950I-2490000J-2490000D01*
G01*
X97617675Y-100467675D02*
G75*
G03*
X102500000Y-102489986I4882325J4882375D01*
G01*
X109000000Y-106000000D02*
G75*
G03*
X106999556Y-110829538I4829500J-4829500D01*
G01*
X109500000Y-104200000D02*
G75*
G03*
X107792896Y-104907110I0J-2414200D01*
G01*
X114451472Y-131851472D02*
G75*
G03*
X116500000Y-132699987I2048528J2048572D01*
G01*
X107000000Y-114310051D02*
G75*
G02*
X106300014Y-116000014I-2389900J-49D01*
G01*
X90500000Y-121000000D02*
G75*
G02*
X93034924Y-119950010I2534900J-2534900D01*
G01*
X97429289Y-118270711D02*
G75*
G02*
X99048529Y-117600035I1619211J-1619289D01*
G01*
X130600000Y-106770152D02*
G75*
G02*
X129152062Y-110265845I-4943600J-48D01*
G01*
D29*
X172215686Y-117885773D02*
X172215686Y-115254151D01*
X152539286Y-140700000D02*
X152539286Y-138104065D01*
X172311814Y-113044151D02*
X177315686Y-113044151D01*
X172215686Y-126757968D02*
X172215689Y-127250237D01*
X153800000Y-135100000D02*
X154514658Y-134385342D01*
X172382147Y-115087690D02*
X172215686Y-115254151D01*
X173581372Y-115819836D02*
X172710838Y-116690370D01*
X174059204Y-116697669D02*
X174765686Y-117404151D01*
X174765686Y-117204150D02*
X174765686Y-117404151D01*
X170600000Y-104200000D02*
X172064644Y-102735356D01*
X167245125Y-107554876D02*
X168550000Y-106250000D01*
X172215686Y-115254151D02*
X172215686Y-114113364D01*
X172710838Y-116690370D02*
X173100604Y-116300604D01*
X170487385Y-109940856D02*
X169781232Y-109234703D01*
X159045006Y-131895963D02*
X167768629Y-131895963D01*
X173264298Y-113996635D02*
X173796635Y-113996635D01*
X172215686Y-117885773D02*
X172215686Y-126757968D01*
X170848109Y-130551891D02*
X170731156Y-130668844D01*
X172962478Y-102300000D02*
X173115686Y-102300000D01*
X153772539Y-135126729D02*
X153800000Y-135100000D01*
X168541879Y-106258121D02*
X168541879Y-108358121D01*
X173796635Y-113996635D02*
X173796635Y-115064655D01*
X168550000Y-106250000D02*
X170600000Y-104200000D01*
X174624264Y-116862728D02*
X173581372Y-115819836D01*
X166605209Y-107919151D02*
X166365686Y-107919151D01*
X154514658Y-134385342D02*
X155560861Y-133339143D01*
X177315686Y-113044151D02*
G75*
G03*
X172382160Y-115087703I14J-6977049D01*
G01*
X155560861Y-133339143D02*
G75*
G02*
X159045006Y-131895971I3484139J-3484157D01*
G01*
X172067663Y-112800000D02*
G75*
G03*
X173264298Y-113996637I1196637J0D01*
G01*
X174624264Y-116862728D02*
G75*
G02*
X174765709Y-117204150I-341464J-341472D01*
G01*
X169781232Y-109234703D02*
G75*
G03*
X166605209Y-107919137I-3176032J-3175997D01*
G01*
X173796635Y-115064655D02*
G75*
G03*
X174765660Y-117404177I3308565J-45D01*
G01*
X168550000Y-106250000D02*
G75*
G03*
X168541900Y-106258121I0J-8100D01*
G01*
X172710838Y-116690370D02*
G75*
G03*
X172215655Y-117885773I1195362J-1195430D01*
G01*
X172215689Y-127250237D02*
G75*
G02*
X170848124Y-130551906I-4669189J-63D01*
G01*
X173100604Y-116300604D02*
G75*
G02*
X174059208Y-116697665I-4J-1355696D01*
G01*
X170731156Y-130668844D02*
G75*
G02*
X167768629Y-131895978I-2962556J2962544D01*
G01*
X152539286Y-138104065D02*
G75*
G02*
X153772551Y-135126741I4210614J-35D01*
G01*
X172064644Y-102735356D02*
G75*
G02*
X173115686Y-102299991I1051056J-1051044D01*
G01*
X172215686Y-114113364D02*
G75*
G03*
X170487377Y-109940864I-5900886J-36D01*
G01*
X166365686Y-107919151D02*
G75*
G03*
X167245139Y-107554890I14J1243751D01*
G01*
X173581372Y-115819836D02*
G75*
G03*
X172215686Y-115254154I-1365672J-1365664D01*
G01*
X172067663Y-112800000D02*
G75*
G03*
X172311814Y-113044137I244137J0D01*
G01*
D28*
X145678823Y-129921177D02*
X150846706Y-124753295D01*
X150846706Y-124753295D02*
G75*
G03*
X153229796Y-119000000I-5753306J5753295D01*
G01*
X145678823Y-129921177D02*
G75*
G02*
X144040000Y-130600013I-1638823J1638777D01*
G01*
D30*
X133895405Y-134645406D02*
X131048138Y-131798139D01*
X136667858Y-136729509D02*
X136667858Y-140500000D01*
X134938349Y-135000000D02*
X134751472Y-135000000D01*
X131048138Y-131798139D02*
G75*
G02*
X130935007Y-131525000I273162J273139D01*
G01*
X134751472Y-135000000D02*
G75*
G02*
X133895411Y-134645400I28J1210700D01*
G01*
X136667858Y-136729509D02*
G75*
G03*
X134938349Y-135000042I-1729458J9D01*
G01*
D28*
X101946016Y-124718435D02*
X112346239Y-135118657D01*
X100850000Y-122072418D02*
X100850000Y-121800000D01*
X112860716Y-140700000D02*
X112860716Y-136360716D01*
X101946016Y-124718435D02*
G75*
G02*
X100849977Y-122072418I2645984J2646035D01*
G01*
X112860716Y-136360716D02*
G75*
G03*
X112346242Y-135118654I-1756516J16D01*
G01*
D29*
X160865000Y-138910386D02*
X160865000Y-140700000D01*
X161050000Y-135600000D02*
X160741421Y-135908579D01*
X160865000Y-138301122D02*
X160865000Y-138422975D01*
X174765686Y-132404151D02*
X174740686Y-132429151D01*
X160865000Y-138422975D02*
X160865000Y-138910386D01*
X160865002Y-138057417D02*
X160865003Y-137935565D01*
X174174263Y-132595572D02*
X173400000Y-133369836D01*
X174680330Y-132454151D02*
X174515685Y-132454151D01*
X169438730Y-135000000D02*
X162498528Y-135000000D01*
X160865002Y-138057417D02*
X160865000Y-138301122D01*
X160475000Y-136551776D02*
X160475000Y-140700000D01*
X173384314Y-133365685D02*
G75*
G02*
X169438730Y-135000020I-3945614J3945585D01*
G01*
X174740686Y-132429151D02*
G75*
G02*
X174680330Y-132454174I-60386J60351D01*
G01*
X162498528Y-135000000D02*
G75*
G03*
X161049992Y-135599992I-28J-2048500D01*
G01*
X174515685Y-132454151D02*
G75*
G03*
X174174270Y-132595579I15J-482849D01*
G01*
X160741421Y-135908579D02*
G75*
G03*
X160474978Y-136551776I643179J-643221D01*
G01*
D30*
X137600000Y-124370000D02*
X145600000Y-124370000D01*
G04 #@! TA.AperFunction,Conductor*
G36*
X156353715Y-116536761D02*
G01*
X156361425Y-116541317D01*
X156363729Y-116549336D01*
X156270709Y-117644158D01*
X156266594Y-117652111D01*
X156259051Y-117654867D01*
X155280547Y-117654867D01*
X155272274Y-117651440D01*
X155268889Y-117644158D01*
X155175868Y-116549336D01*
X155178582Y-116540802D01*
X155185880Y-116536761D01*
X155768158Y-116454100D01*
X155771440Y-116454100D01*
X156353715Y-116536761D01*
G37*
G04 #@! TD.AperFunction*
G04 #@! TA.AperFunction,Conductor*
G36*
X153286214Y-118999236D02*
G01*
X153812949Y-119076595D01*
X153820634Y-119081187D01*
X153822823Y-119089870D01*
X153822801Y-119090012D01*
X153638653Y-120245056D01*
X153633966Y-120252687D01*
X153625572Y-120254814D01*
X152655487Y-120127099D01*
X152647732Y-120122622D01*
X152645315Y-120115616D01*
X152635036Y-119088777D01*
X152638379Y-119080472D01*
X152645315Y-119077048D01*
X153283104Y-118999199D01*
X153286214Y-118999236D01*
G37*
G04 #@! TD.AperFunction*
G04 #@! TA.AperFunction,Conductor*
G36*
X162798392Y-118826291D02*
G01*
X162802692Y-118830932D01*
X163232289Y-119669470D01*
X163233011Y-119678396D01*
X163230847Y-119682316D01*
X162631831Y-120397707D01*
X162623892Y-120401850D01*
X162615407Y-120399215D01*
X161745743Y-119680526D01*
X161741548Y-119672614D01*
X161741604Y-119669918D01*
X161825039Y-119064103D01*
X161829562Y-119056377D01*
X161833894Y-119054326D01*
X162789549Y-118824890D01*
X162798392Y-118826291D01*
G37*
G04 #@! TD.AperFunction*
G04 #@! TA.AperFunction,Conductor*
G36*
X176975046Y-111897399D02*
G01*
X176981189Y-111903914D01*
X176981387Y-111904478D01*
X177271412Y-112802950D01*
X177270693Y-112811876D01*
X177270481Y-112812270D01*
X176602891Y-114001817D01*
X176595854Y-114007355D01*
X176593627Y-114007753D01*
X175371675Y-114106109D01*
X175363153Y-114103357D01*
X175359510Y-114097743D01*
X174942639Y-112678019D01*
X174943596Y-112669117D01*
X174949706Y-112663788D01*
X176966095Y-111897136D01*
X176975046Y-111897399D01*
G37*
G04 #@! TD.AperFunction*
G04 #@! TA.AperFunction,Conductor*
G36*
X176658063Y-112047416D02*
G01*
X176660974Y-112050441D01*
X177316092Y-113037682D01*
X177317811Y-113046470D01*
X177316092Y-113050620D01*
X176660974Y-114037860D01*
X176653544Y-114042859D01*
X176649347Y-114042939D01*
X175129207Y-113795748D01*
X175121591Y-113791038D01*
X175119385Y-113784200D01*
X175119385Y-112304101D01*
X175122812Y-112295828D01*
X175129204Y-112292554D01*
X176649349Y-112045362D01*
X176658063Y-112047416D01*
G37*
G04 #@! TD.AperFunction*
G04 #@! TA.AperFunction,Conductor*
G36*
X100410580Y-121935545D02*
G01*
X101611935Y-122681091D01*
X101617158Y-122688365D01*
X101617333Y-122689271D01*
X101763310Y-123647959D01*
X101761167Y-123656654D01*
X101757258Y-123660038D01*
X100892462Y-124122290D01*
X100883551Y-124123168D01*
X100876913Y-124117987D01*
X99823696Y-122360785D01*
X99822382Y-122351927D01*
X99826912Y-122345262D01*
X100397592Y-121935977D01*
X100406312Y-121933942D01*
X100410580Y-121935545D01*
G37*
G04 #@! TD.AperFunction*
G04 #@! TA.AperFunction,Conductor*
G36*
X116113082Y-98591866D02*
G01*
X116922111Y-99831019D01*
X116923764Y-99839820D01*
X116920232Y-99846028D01*
X115705203Y-100963008D01*
X115696794Y-100966085D01*
X115693343Y-100965411D01*
X114539307Y-100552416D01*
X114532672Y-100546402D01*
X114531565Y-100540795D01*
X114595676Y-99306971D01*
X114599527Y-99298889D01*
X114602342Y-99297011D01*
X116098273Y-98587689D01*
X116107216Y-98587242D01*
X116113082Y-98591866D01*
G37*
G04 #@! TD.AperFunction*
G04 #@! TA.AperFunction,Conductor*
G36*
X151754723Y-128028081D02*
G01*
X152476706Y-128420103D01*
X152480246Y-128423059D01*
X152950410Y-129008704D01*
X152952917Y-129017301D01*
X152948611Y-129025153D01*
X152948036Y-129025586D01*
X151708301Y-129901170D01*
X151699566Y-129903143D01*
X151693278Y-129899886D01*
X150999792Y-129206400D01*
X150996365Y-129198127D01*
X150998206Y-129191827D01*
X151739282Y-128032063D01*
X151746624Y-128026938D01*
X151754723Y-128028081D01*
G37*
G04 #@! TD.AperFunction*
G04 #@! TA.AperFunction,Conductor*
G36*
X172275392Y-101458066D02*
G01*
X172861881Y-101927716D01*
X172866197Y-101935562D01*
X172865954Y-101939542D01*
X172533358Y-103345472D01*
X172530118Y-103351177D01*
X171849917Y-104010989D01*
X171841593Y-104014290D01*
X171833498Y-104010864D01*
X170789203Y-102966569D01*
X170785776Y-102958296D01*
X170789146Y-102950080D01*
X172259751Y-101458982D01*
X172267998Y-101455499D01*
X172275392Y-101458066D01*
G37*
G04 #@! TD.AperFunction*
G04 #@! TA.AperFunction,Conductor*
G36*
X152617169Y-135379008D02*
G01*
X153267060Y-135834070D01*
X153831237Y-136229115D01*
X153836048Y-136236667D01*
X153836083Y-136240523D01*
X153739996Y-136849246D01*
X153735715Y-136856584D01*
X151360418Y-138743047D01*
X151351809Y-138745509D01*
X151343980Y-138741161D01*
X151341464Y-138733171D01*
X151465722Y-136703932D01*
X151468532Y-136697015D01*
X152601595Y-135380957D01*
X152609588Y-135376926D01*
X152617169Y-135379008D01*
G37*
G04 #@! TD.AperFunction*
G04 #@! TA.AperFunction,Conductor*
G36*
X153206264Y-107116670D02*
G01*
X154665924Y-107997489D01*
X154671237Y-108004697D01*
X154671214Y-108010405D01*
X154471854Y-108789871D01*
X154466484Y-108797037D01*
X154466034Y-108797290D01*
X153597380Y-109261605D01*
X153588469Y-109262483D01*
X153582612Y-109258447D01*
X152620480Y-108015140D01*
X152618127Y-108006500D01*
X152619909Y-108001625D01*
X153190399Y-107120328D01*
X153197771Y-107115247D01*
X153206264Y-107116670D01*
G37*
G04 #@! TD.AperFunction*
G04 #@! TA.AperFunction,Conductor*
G36*
X91528013Y-130776531D02*
G01*
X91532571Y-130780236D01*
X91809782Y-131156895D01*
X92506896Y-132104098D01*
X92509040Y-132112791D01*
X92505746Y-132119305D01*
X91459305Y-133165746D01*
X91451032Y-133169173D01*
X91444098Y-133166896D01*
X90841580Y-132723460D01*
X90120236Y-132192571D01*
X90115604Y-132184907D01*
X90116207Y-132179065D01*
X90495028Y-131161906D01*
X90501126Y-131155351D01*
X90501884Y-131155036D01*
X91519066Y-130776207D01*
X91528013Y-130776531D01*
G37*
G04 #@! TD.AperFunction*
G04 #@! TA.AperFunction,Conductor*
G36*
X167613411Y-106141162D02*
G01*
X168658506Y-107186256D01*
X168661933Y-107194529D01*
X168658831Y-107202464D01*
X167221889Y-108759363D01*
X167213759Y-108763119D01*
X167205647Y-108760286D01*
X166584750Y-108224503D01*
X166580726Y-108216504D01*
X166580849Y-108213745D01*
X166811924Y-106809731D01*
X166815905Y-106802706D01*
X167597578Y-106140507D01*
X167606103Y-106137775D01*
X167613411Y-106141162D01*
G37*
G04 #@! TD.AperFunction*
G04 #@! TA.AperFunction,Conductor*
G36*
X166882293Y-106835618D02*
G01*
X168811684Y-107658506D01*
X168817949Y-107664903D01*
X168817855Y-107673857D01*
X168817697Y-107674212D01*
X168193150Y-109013542D01*
X168186548Y-109019591D01*
X168179188Y-109019805D01*
X167246152Y-108740280D01*
X167239599Y-108735290D01*
X166476213Y-107518551D01*
X166474720Y-107509724D01*
X166476037Y-107506408D01*
X166867620Y-106840449D01*
X166874766Y-106835056D01*
X166882293Y-106835618D01*
G37*
G04 #@! TD.AperFunction*
G04 #@! TA.AperFunction,Conductor*
G36*
X162498984Y-120433651D02*
G01*
X162498995Y-120433662D01*
X163235609Y-121171259D01*
X163239030Y-121179535D01*
X163238430Y-121183227D01*
X162993383Y-121918372D01*
X162987515Y-121925137D01*
X162982283Y-121926372D01*
X161999149Y-121926372D01*
X161990876Y-121922945D01*
X161988049Y-121918372D01*
X161743001Y-121183227D01*
X161743636Y-121174295D01*
X161745822Y-121171259D01*
X162482437Y-120433662D01*
X162490708Y-120430230D01*
X162498984Y-120433651D01*
G37*
G04 #@! TD.AperFunction*
G04 #@! TA.AperFunction,Conductor*
G36*
X153088149Y-126809992D02*
G01*
X153780287Y-127502130D01*
X153783714Y-127510403D01*
X153781272Y-127517557D01*
X153235290Y-128224184D01*
X153227520Y-128228635D01*
X153226780Y-128228706D01*
X152307514Y-128287577D01*
X152299039Y-128284686D01*
X152298152Y-128283818D01*
X151893168Y-127843201D01*
X151890092Y-127834791D01*
X151893865Y-127826670D01*
X151894102Y-127826457D01*
X153072231Y-126809408D01*
X153080732Y-126806596D01*
X153088149Y-126809992D01*
G37*
G04 #@! TD.AperFunction*
G04 #@! TA.AperFunction,Conductor*
G36*
X162988998Y-126583410D02*
G01*
X162992281Y-126589850D01*
X163214477Y-127990709D01*
X163212388Y-127999417D01*
X163204754Y-128004098D01*
X163204173Y-128004175D01*
X162491934Y-128080851D01*
X162489497Y-128080858D01*
X161736289Y-128004148D01*
X161728405Y-127999900D01*
X161725834Y-127991323D01*
X161725975Y-127990349D01*
X161988925Y-126589524D01*
X161993819Y-126582026D01*
X162000424Y-126579983D01*
X162980725Y-126579983D01*
X162988998Y-126583410D01*
G37*
G04 #@! TD.AperFunction*
G04 #@! TA.AperFunction,Conductor*
G36*
X144772850Y-135494104D02*
G01*
X145441348Y-136027218D01*
X145544320Y-136109336D01*
X145548080Y-136114652D01*
X145748038Y-136691672D01*
X145747509Y-136700611D01*
X145743715Y-136705072D01*
X143422618Y-138338130D01*
X143413880Y-138340088D01*
X143406317Y-138335293D01*
X143404186Y-138328565D01*
X143403573Y-136705247D01*
X143406997Y-136696976D01*
X143407461Y-136696537D01*
X144757780Y-135494512D01*
X144766236Y-135491572D01*
X144772850Y-135494104D01*
G37*
G04 #@! TD.AperFunction*
G04 #@! TA.AperFunction,Conductor*
G36*
X115901021Y-118289057D02*
G01*
X115905141Y-118292396D01*
X116273597Y-118766126D01*
X117131094Y-119868623D01*
X117133469Y-119877257D01*
X117130132Y-119884079D01*
X116083840Y-120930371D01*
X116075567Y-120933798D01*
X116068692Y-120931565D01*
X114790893Y-120003708D01*
X114786213Y-119996074D01*
X114786081Y-119993696D01*
X114848920Y-118657205D01*
X114852732Y-118649105D01*
X114856777Y-118646703D01*
X115892084Y-118288523D01*
X115901021Y-118289057D01*
G37*
G04 #@! TD.AperFunction*
M02*
