M48
; DRILL file KiCad 10.0.4-1.fc44 date 2026-06-27T19:13:51
; FORMAT={-:-/ absolute / metric / decimal}
; #@! TF.CreationDate,2026-06-27T19:13:51+03:00
; #@! TF.GenerationSoftware,Kicad,Pcbnew,10.0.4-1.fc44
; #@! TF.FileFunction,Plated,1,2,PTH
FMAT,2
METRIC
; #@! TA.AperFunction,Plated,PTH,ComponentDrill
T1C0.700
; #@! TA.AperFunction,Plated,PTH,ComponentDrill
T2C0.800
; #@! TA.AperFunction,Plated,PTH,ComponentDrill
T3C1.000
; #@! TA.AperFunction,Plated,PTH,ComponentDrill
T4C1.100
; #@! TA.AperFunction,Plated,PTH,ComponentDrill
T5C1.200
; #@! TA.AperFunction,Plated,PTH,ComponentDrill
T6C1.300
%
G90
G05
T1
X153.23Y-119.0
X155.77Y-116.46
X158.31Y-119.0
T2
X152.451Y-128.4
X156.261Y-128.4
X162.47Y-128.076
X162.491Y-120.426
X165.21Y-128.076
X165.231Y-120.426
X167.95Y-128.076
X167.971Y-120.426
T3
X93.6Y-98.282
X93.6Y-103.282
X93.7Y-110.532
X93.7Y-115.532
X125.855Y-126.445
X125.855Y-131.525
X130.935Y-126.445
X130.935Y-131.525
T4
X90.5Y-121.0
X90.5Y-131.16
X153.02Y-96.7
X153.642Y-106.982
X153.67Y-103.332
X158.1Y-96.7
X158.722Y-106.982
X158.75Y-103.332
X162.52Y-96.7
X167.6Y-96.7
T5
X102.4Y-108.0
X102.4Y-113.08
X102.5Y-97.41
X102.5Y-102.49
X114.5Y-100.5
X114.5Y-108.0
X114.7Y-118.8
X114.7Y-126.3
X128.5Y-111.84
X128.5Y-119.46
X137.6Y-96.43
X137.6Y-124.37
X138.96Y-130.6
X144.04Y-130.6
X145.6Y-96.43
X145.6Y-124.37
X163.46Y-112.7
X166.366Y-102.839
X166.366Y-107.919
X168.54Y-112.7
X173.116Y-102.3
X173.116Y-107.38
X174.766Y-117.404
X174.766Y-132.404
X177.316Y-107.964
X177.316Y-113.044
T6
X98.35Y-131.8
X100.85Y-121.8
X103.35Y-131.8
M30
