G04 #@! TF.GenerationSoftware,KiCad,Pcbnew,10.0.4-1.fc44*
G04 #@! TF.CreationDate,2026-06-27T19:13:49+03:00*
G04 #@! TF.ProjectId,Error_amp_board,4572726f-725f-4616-9d70-5f626f617264,1.1*
G04 #@! TF.SameCoordinates,Original*
G04 #@! TF.FileFunction,Legend,Bot*
G04 #@! TF.FilePolarity,Positive*
%FSLAX46Y46*%
G04 Gerber Fmt 4.6, Leading zero omitted, Abs format (unit mm)*
G04 Created by KiCad (PCBNEW 10.0.4-1.fc44) date 2026-06-27 19:13:49*
%MOMM*%
%LPD*%
G01*
G04 APERTURE LIST*
G04 Aperture macros list*
%AMRoundRect*
0 Rectangle with rounded corners*
0 $1 Rounding radius*
0 $2 $3 $4 $5 $6 $7 $8 $9 X,Y pos of 4 corners*
0 Add a 4 corners polygon primitive as box body*
4,1,4,$2,$3,$4,$5,$6,$7,$8,$9,$2,$3,0*
0 Add four circle primitives for the rounded corners*
1,1,$1+$1,$2,$3*
1,1,$1+$1,$4,$5*
1,1,$1+$1,$6,$7*
1,1,$1+$1,$8,$9*
0 Add four rect primitives between the rounded corners*
20,1,$1+$1,$2,$3,$4,$5,0*
20,1,$1+$1,$4,$5,$6,$7,0*
20,1,$1+$1,$6,$7,$8,$9,0*
20,1,$1+$1,$8,$9,$2,$3,0*%
G04 Aperture macros list end*
%ADD10C,0.200000*%
%ADD11C,0.300000*%
%ADD12RoundRect,0.250000X0.550000X0.550000X-0.550000X0.550000X-0.550000X-0.550000X0.550000X-0.550000X0*%
%ADD13C,1.600000*%
%ADD14RoundRect,0.250001X-0.949999X0.949999X-0.949999X-0.949999X0.949999X-0.949999X0.949999X0.949999X0*%
%ADD15C,2.400000*%
%ADD16RoundRect,0.249999X0.850001X0.850001X-0.850001X0.850001X-0.850001X-0.850001X0.850001X-0.850001X0*%
%ADD17C,2.200000*%
%ADD18R,2.000000X2.000000*%
%ADD19O,2.000000X2.000000*%
%ADD20R,1.500000X1.500000*%
%ADD21C,1.500000*%
%ADD22O,1.600000X1.200000*%
%ADD23C,1.200000*%
%ADD24C,2.340000*%
%ADD25RoundRect,0.250000X-0.750000X0.750000X-0.750000X-0.750000X0.750000X-0.750000X0.750000X0.750000X0*%
%ADD26C,2.000000*%
%ADD27RoundRect,0.249999X-0.850001X0.850001X-0.850001X-0.850001X0.850001X-0.850001X0.850001X0.850001X0*%
%ADD28RoundRect,0.249999X-0.850001X-0.850001X0.850001X-0.850001X0.850001X0.850001X-0.850001X0.850001X0*%
%ADD29R,2.400000X7.900000*%
G04 APERTURE END LIST*
D10*
X102739850Y-124247331D02*
X102549374Y-124247331D01*
X102549374Y-124247331D02*
X102454136Y-124294950D01*
X102454136Y-124294950D02*
X102358898Y-124390188D01*
X102358898Y-124390188D02*
X102311279Y-124580664D01*
X102311279Y-124580664D02*
X102311279Y-124913997D01*
X102311279Y-124913997D02*
X102358898Y-125104473D01*
X102358898Y-125104473D02*
X102454136Y-125199712D01*
X102454136Y-125199712D02*
X102549374Y-125247331D01*
X102549374Y-125247331D02*
X102739850Y-125247331D01*
X102739850Y-125247331D02*
X102835088Y-125199712D01*
X102835088Y-125199712D02*
X102930326Y-125104473D01*
X102930326Y-125104473D02*
X102977945Y-124913997D01*
X102977945Y-124913997D02*
X102977945Y-124580664D01*
X102977945Y-124580664D02*
X102930326Y-124390188D01*
X102930326Y-124390188D02*
X102835088Y-124294950D01*
X102835088Y-124294950D02*
X102739850Y-124247331D01*
X101739850Y-125247331D02*
X101835088Y-125199712D01*
X101835088Y-125199712D02*
X101882707Y-125104473D01*
X101882707Y-125104473D02*
X101882707Y-124247331D01*
X101501754Y-124580664D02*
X101120802Y-124580664D01*
X101358897Y-124247331D02*
X101358897Y-125104473D01*
X101358897Y-125104473D02*
X101311278Y-125199712D01*
X101311278Y-125199712D02*
X101216040Y-125247331D01*
X101216040Y-125247331D02*
X101120802Y-125247331D01*
X100787468Y-125247331D02*
X100787468Y-124580664D01*
X100787468Y-124771140D02*
X100739849Y-124675902D01*
X100739849Y-124675902D02*
X100692230Y-124628283D01*
X100692230Y-124628283D02*
X100596992Y-124580664D01*
X100596992Y-124580664D02*
X100501754Y-124580664D01*
X100025563Y-125247331D02*
X100120801Y-125199712D01*
X100120801Y-125199712D02*
X100168420Y-125152092D01*
X100168420Y-125152092D02*
X100216039Y-125056854D01*
X100216039Y-125056854D02*
X100216039Y-124771140D01*
X100216039Y-124771140D02*
X100168420Y-124675902D01*
X100168420Y-124675902D02*
X100120801Y-124628283D01*
X100120801Y-124628283D02*
X100025563Y-124580664D01*
X100025563Y-124580664D02*
X99882706Y-124580664D01*
X99882706Y-124580664D02*
X99787468Y-124628283D01*
X99787468Y-124628283D02*
X99739849Y-124675902D01*
X99739849Y-124675902D02*
X99692230Y-124771140D01*
X99692230Y-124771140D02*
X99692230Y-125056854D01*
X99692230Y-125056854D02*
X99739849Y-125152092D01*
X99739849Y-125152092D02*
X99787468Y-125199712D01*
X99787468Y-125199712D02*
X99882706Y-125247331D01*
X99882706Y-125247331D02*
X100025563Y-125247331D01*
X99263658Y-124580664D02*
X99263658Y-125247331D01*
X99263658Y-124675902D02*
X99216039Y-124628283D01*
X99216039Y-124628283D02*
X99120801Y-124580664D01*
X99120801Y-124580664D02*
X98977944Y-124580664D01*
X98977944Y-124580664D02*
X98882706Y-124628283D01*
X98882706Y-124628283D02*
X98835087Y-124723521D01*
X98835087Y-124723521D02*
X98835087Y-125247331D01*
X98358896Y-125247331D02*
X98358896Y-124580664D01*
X98358896Y-124247331D02*
X98406515Y-124294950D01*
X98406515Y-124294950D02*
X98358896Y-124342569D01*
X98358896Y-124342569D02*
X98311277Y-124294950D01*
X98311277Y-124294950D02*
X98358896Y-124247331D01*
X98358896Y-124247331D02*
X98358896Y-124342569D01*
X97454135Y-125199712D02*
X97549373Y-125247331D01*
X97549373Y-125247331D02*
X97739849Y-125247331D01*
X97739849Y-125247331D02*
X97835087Y-125199712D01*
X97835087Y-125199712D02*
X97882706Y-125152092D01*
X97882706Y-125152092D02*
X97930325Y-125056854D01*
X97930325Y-125056854D02*
X97930325Y-124771140D01*
X97930325Y-124771140D02*
X97882706Y-124675902D01*
X97882706Y-124675902D02*
X97835087Y-124628283D01*
X97835087Y-124628283D02*
X97739849Y-124580664D01*
X97739849Y-124580664D02*
X97549373Y-124580664D01*
X97549373Y-124580664D02*
X97454135Y-124628283D01*
X96263658Y-125247331D02*
X96263658Y-124247331D01*
X96263658Y-124247331D02*
X96025563Y-124247331D01*
X96025563Y-124247331D02*
X95882706Y-124294950D01*
X95882706Y-124294950D02*
X95787468Y-124390188D01*
X95787468Y-124390188D02*
X95739849Y-124485426D01*
X95739849Y-124485426D02*
X95692230Y-124675902D01*
X95692230Y-124675902D02*
X95692230Y-124818759D01*
X95692230Y-124818759D02*
X95739849Y-125009235D01*
X95739849Y-125009235D02*
X95787468Y-125104473D01*
X95787468Y-125104473D02*
X95882706Y-125199712D01*
X95882706Y-125199712D02*
X96025563Y-125247331D01*
X96025563Y-125247331D02*
X96263658Y-125247331D01*
X94835087Y-124580664D02*
X94835087Y-125247331D01*
X95073182Y-124199712D02*
X95311277Y-124913997D01*
X95311277Y-124913997D02*
X94692230Y-124913997D01*
X94120801Y-124247331D02*
X94025563Y-124247331D01*
X94025563Y-124247331D02*
X93930325Y-124294950D01*
X93930325Y-124294950D02*
X93882706Y-124342569D01*
X93882706Y-124342569D02*
X93835087Y-124437807D01*
X93835087Y-124437807D02*
X93787468Y-124628283D01*
X93787468Y-124628283D02*
X93787468Y-124866378D01*
X93787468Y-124866378D02*
X93835087Y-125056854D01*
X93835087Y-125056854D02*
X93882706Y-125152092D01*
X93882706Y-125152092D02*
X93930325Y-125199712D01*
X93930325Y-125199712D02*
X94025563Y-125247331D01*
X94025563Y-125247331D02*
X94120801Y-125247331D01*
X94120801Y-125247331D02*
X94216039Y-125199712D01*
X94216039Y-125199712D02*
X94263658Y-125152092D01*
X94263658Y-125152092D02*
X94311277Y-125056854D01*
X94311277Y-125056854D02*
X94358896Y-124866378D01*
X94358896Y-124866378D02*
X94358896Y-124628283D01*
X94358896Y-124628283D02*
X94311277Y-124437807D01*
X94311277Y-124437807D02*
X94263658Y-124342569D01*
X94263658Y-124342569D02*
X94216039Y-124294950D01*
X94216039Y-124294950D02*
X94120801Y-124247331D01*
X93168420Y-124247331D02*
X93073182Y-124247331D01*
X93073182Y-124247331D02*
X92977944Y-124294950D01*
X92977944Y-124294950D02*
X92930325Y-124342569D01*
X92930325Y-124342569D02*
X92882706Y-124437807D01*
X92882706Y-124437807D02*
X92835087Y-124628283D01*
X92835087Y-124628283D02*
X92835087Y-124866378D01*
X92835087Y-124866378D02*
X92882706Y-125056854D01*
X92882706Y-125056854D02*
X92930325Y-125152092D01*
X92930325Y-125152092D02*
X92977944Y-125199712D01*
X92977944Y-125199712D02*
X93073182Y-125247331D01*
X93073182Y-125247331D02*
X93168420Y-125247331D01*
X93168420Y-125247331D02*
X93263658Y-125199712D01*
X93263658Y-125199712D02*
X93311277Y-125152092D01*
X93311277Y-125152092D02*
X93358896Y-125056854D01*
X93358896Y-125056854D02*
X93406515Y-124866378D01*
X93406515Y-124866378D02*
X93406515Y-124628283D01*
X93406515Y-124628283D02*
X93358896Y-124437807D01*
X93358896Y-124437807D02*
X93311277Y-124342569D01*
X93311277Y-124342569D02*
X93263658Y-124294950D01*
X93263658Y-124294950D02*
X93168420Y-124247331D01*
X102930326Y-126190608D02*
X102930326Y-127047751D01*
X102930326Y-127047751D02*
X102977945Y-127142989D01*
X102977945Y-127142989D02*
X103073183Y-127190608D01*
X103073183Y-127190608D02*
X103120802Y-127190608D01*
X102930326Y-125857275D02*
X102977945Y-125904894D01*
X102977945Y-125904894D02*
X102930326Y-125952513D01*
X102930326Y-125952513D02*
X102882707Y-125904894D01*
X102882707Y-125904894D02*
X102930326Y-125857275D01*
X102930326Y-125857275D02*
X102930326Y-125952513D01*
X102311279Y-126857275D02*
X102406517Y-126809656D01*
X102406517Y-126809656D02*
X102454136Y-126762036D01*
X102454136Y-126762036D02*
X102501755Y-126666798D01*
X102501755Y-126666798D02*
X102501755Y-126381084D01*
X102501755Y-126381084D02*
X102454136Y-126285846D01*
X102454136Y-126285846D02*
X102406517Y-126238227D01*
X102406517Y-126238227D02*
X102311279Y-126190608D01*
X102311279Y-126190608D02*
X102168422Y-126190608D01*
X102168422Y-126190608D02*
X102073184Y-126238227D01*
X102073184Y-126238227D02*
X102025565Y-126285846D01*
X102025565Y-126285846D02*
X101977946Y-126381084D01*
X101977946Y-126381084D02*
X101977946Y-126666798D01*
X101977946Y-126666798D02*
X102025565Y-126762036D01*
X102025565Y-126762036D02*
X102073184Y-126809656D01*
X102073184Y-126809656D02*
X102168422Y-126857275D01*
X102168422Y-126857275D02*
X102311279Y-126857275D01*
X101549374Y-126857275D02*
X101549374Y-125857275D01*
X101120803Y-126857275D02*
X101120803Y-126333465D01*
X101120803Y-126333465D02*
X101168422Y-126238227D01*
X101168422Y-126238227D02*
X101263660Y-126190608D01*
X101263660Y-126190608D02*
X101406517Y-126190608D01*
X101406517Y-126190608D02*
X101501755Y-126238227D01*
X101501755Y-126238227D02*
X101549374Y-126285846D01*
X100216041Y-126857275D02*
X100216041Y-126333465D01*
X100216041Y-126333465D02*
X100263660Y-126238227D01*
X100263660Y-126238227D02*
X100358898Y-126190608D01*
X100358898Y-126190608D02*
X100549374Y-126190608D01*
X100549374Y-126190608D02*
X100644612Y-126238227D01*
X100216041Y-126809656D02*
X100311279Y-126857275D01*
X100311279Y-126857275D02*
X100549374Y-126857275D01*
X100549374Y-126857275D02*
X100644612Y-126809656D01*
X100644612Y-126809656D02*
X100692231Y-126714417D01*
X100692231Y-126714417D02*
X100692231Y-126619179D01*
X100692231Y-126619179D02*
X100644612Y-126523941D01*
X100644612Y-126523941D02*
X100549374Y-126476322D01*
X100549374Y-126476322D02*
X100311279Y-126476322D01*
X100311279Y-126476322D02*
X100216041Y-126428703D01*
X99739850Y-126190608D02*
X99739850Y-126857275D01*
X99739850Y-126285846D02*
X99692231Y-126238227D01*
X99692231Y-126238227D02*
X99596993Y-126190608D01*
X99596993Y-126190608D02*
X99454136Y-126190608D01*
X99454136Y-126190608D02*
X99358898Y-126238227D01*
X99358898Y-126238227D02*
X99311279Y-126333465D01*
X99311279Y-126333465D02*
X99311279Y-126857275D01*
X98835088Y-126857275D02*
X98835088Y-125857275D01*
X98406517Y-126857275D02*
X98406517Y-126333465D01*
X98406517Y-126333465D02*
X98454136Y-126238227D01*
X98454136Y-126238227D02*
X98549374Y-126190608D01*
X98549374Y-126190608D02*
X98692231Y-126190608D01*
X98692231Y-126190608D02*
X98787469Y-126238227D01*
X98787469Y-126238227D02*
X98835088Y-126285846D01*
X96977945Y-125857275D02*
X96882707Y-125857275D01*
X96882707Y-125857275D02*
X96787469Y-125904894D01*
X96787469Y-125904894D02*
X96739850Y-125952513D01*
X96739850Y-125952513D02*
X96692231Y-126047751D01*
X96692231Y-126047751D02*
X96644612Y-126238227D01*
X96644612Y-126238227D02*
X96644612Y-126476322D01*
X96644612Y-126476322D02*
X96692231Y-126666798D01*
X96692231Y-126666798D02*
X96739850Y-126762036D01*
X96739850Y-126762036D02*
X96787469Y-126809656D01*
X96787469Y-126809656D02*
X96882707Y-126857275D01*
X96882707Y-126857275D02*
X96977945Y-126857275D01*
X96977945Y-126857275D02*
X97073183Y-126809656D01*
X97073183Y-126809656D02*
X97120802Y-126762036D01*
X97120802Y-126762036D02*
X97168421Y-126666798D01*
X97168421Y-126666798D02*
X97216040Y-126476322D01*
X97216040Y-126476322D02*
X97216040Y-126238227D01*
X97216040Y-126238227D02*
X97168421Y-126047751D01*
X97168421Y-126047751D02*
X97120802Y-125952513D01*
X97120802Y-125952513D02*
X97073183Y-125904894D01*
X97073183Y-125904894D02*
X96977945Y-125857275D01*
X95787469Y-126190608D02*
X95787469Y-126857275D01*
X96025564Y-125809656D02*
X96263659Y-126523941D01*
X96263659Y-126523941D02*
X95644612Y-126523941D01*
X95263659Y-126762036D02*
X95216040Y-126809656D01*
X95216040Y-126809656D02*
X95263659Y-126857275D01*
X95263659Y-126857275D02*
X95311278Y-126809656D01*
X95311278Y-126809656D02*
X95263659Y-126762036D01*
X95263659Y-126762036D02*
X95263659Y-126857275D01*
X94835088Y-125952513D02*
X94787469Y-125904894D01*
X94787469Y-125904894D02*
X94692231Y-125857275D01*
X94692231Y-125857275D02*
X94454136Y-125857275D01*
X94454136Y-125857275D02*
X94358898Y-125904894D01*
X94358898Y-125904894D02*
X94311279Y-125952513D01*
X94311279Y-125952513D02*
X94263660Y-126047751D01*
X94263660Y-126047751D02*
X94263660Y-126142989D01*
X94263660Y-126142989D02*
X94311279Y-126285846D01*
X94311279Y-126285846D02*
X94882707Y-126857275D01*
X94882707Y-126857275D02*
X94263660Y-126857275D01*
X93644612Y-125857275D02*
X93549374Y-125857275D01*
X93549374Y-125857275D02*
X93454136Y-125904894D01*
X93454136Y-125904894D02*
X93406517Y-125952513D01*
X93406517Y-125952513D02*
X93358898Y-126047751D01*
X93358898Y-126047751D02*
X93311279Y-126238227D01*
X93311279Y-126238227D02*
X93311279Y-126476322D01*
X93311279Y-126476322D02*
X93358898Y-126666798D01*
X93358898Y-126666798D02*
X93406517Y-126762036D01*
X93406517Y-126762036D02*
X93454136Y-126809656D01*
X93454136Y-126809656D02*
X93549374Y-126857275D01*
X93549374Y-126857275D02*
X93644612Y-126857275D01*
X93644612Y-126857275D02*
X93739850Y-126809656D01*
X93739850Y-126809656D02*
X93787469Y-126762036D01*
X93787469Y-126762036D02*
X93835088Y-126666798D01*
X93835088Y-126666798D02*
X93882707Y-126476322D01*
X93882707Y-126476322D02*
X93882707Y-126238227D01*
X93882707Y-126238227D02*
X93835088Y-126047751D01*
X93835088Y-126047751D02*
X93787469Y-125952513D01*
X93787469Y-125952513D02*
X93739850Y-125904894D01*
X93739850Y-125904894D02*
X93644612Y-125857275D01*
X92930326Y-125952513D02*
X92882707Y-125904894D01*
X92882707Y-125904894D02*
X92787469Y-125857275D01*
X92787469Y-125857275D02*
X92549374Y-125857275D01*
X92549374Y-125857275D02*
X92454136Y-125904894D01*
X92454136Y-125904894D02*
X92406517Y-125952513D01*
X92406517Y-125952513D02*
X92358898Y-126047751D01*
X92358898Y-126047751D02*
X92358898Y-126142989D01*
X92358898Y-126142989D02*
X92406517Y-126285846D01*
X92406517Y-126285846D02*
X92977945Y-126857275D01*
X92977945Y-126857275D02*
X92358898Y-126857275D01*
X91501755Y-125857275D02*
X91692231Y-125857275D01*
X91692231Y-125857275D02*
X91787469Y-125904894D01*
X91787469Y-125904894D02*
X91835088Y-125952513D01*
X91835088Y-125952513D02*
X91930326Y-126095370D01*
X91930326Y-126095370D02*
X91977945Y-126285846D01*
X91977945Y-126285846D02*
X91977945Y-126666798D01*
X91977945Y-126666798D02*
X91930326Y-126762036D01*
X91930326Y-126762036D02*
X91882707Y-126809656D01*
X91882707Y-126809656D02*
X91787469Y-126857275D01*
X91787469Y-126857275D02*
X91596993Y-126857275D01*
X91596993Y-126857275D02*
X91501755Y-126809656D01*
X91501755Y-126809656D02*
X91454136Y-126762036D01*
X91454136Y-126762036D02*
X91406517Y-126666798D01*
X91406517Y-126666798D02*
X91406517Y-126428703D01*
X91406517Y-126428703D02*
X91454136Y-126333465D01*
X91454136Y-126333465D02*
X91501755Y-126285846D01*
X91501755Y-126285846D02*
X91596993Y-126238227D01*
X91596993Y-126238227D02*
X91787469Y-126238227D01*
X91787469Y-126238227D02*
X91882707Y-126285846D01*
X91882707Y-126285846D02*
X91930326Y-126333465D01*
X91930326Y-126333465D02*
X91977945Y-126428703D01*
X102358898Y-128467219D02*
X102692231Y-127991028D01*
X102930326Y-128467219D02*
X102930326Y-127467219D01*
X102930326Y-127467219D02*
X102549374Y-127467219D01*
X102549374Y-127467219D02*
X102454136Y-127514838D01*
X102454136Y-127514838D02*
X102406517Y-127562457D01*
X102406517Y-127562457D02*
X102358898Y-127657695D01*
X102358898Y-127657695D02*
X102358898Y-127800552D01*
X102358898Y-127800552D02*
X102406517Y-127895790D01*
X102406517Y-127895790D02*
X102454136Y-127943409D01*
X102454136Y-127943409D02*
X102549374Y-127991028D01*
X102549374Y-127991028D02*
X102930326Y-127991028D01*
X101549374Y-128419600D02*
X101644612Y-128467219D01*
X101644612Y-128467219D02*
X101835088Y-128467219D01*
X101835088Y-128467219D02*
X101930326Y-128419600D01*
X101930326Y-128419600D02*
X101977945Y-128324361D01*
X101977945Y-128324361D02*
X101977945Y-127943409D01*
X101977945Y-127943409D02*
X101930326Y-127848171D01*
X101930326Y-127848171D02*
X101835088Y-127800552D01*
X101835088Y-127800552D02*
X101644612Y-127800552D01*
X101644612Y-127800552D02*
X101549374Y-127848171D01*
X101549374Y-127848171D02*
X101501755Y-127943409D01*
X101501755Y-127943409D02*
X101501755Y-128038647D01*
X101501755Y-128038647D02*
X101977945Y-128133885D01*
X101168421Y-127800552D02*
X100930326Y-128467219D01*
X100930326Y-128467219D02*
X100692231Y-127800552D01*
X100311278Y-128371980D02*
X100263659Y-128419600D01*
X100263659Y-128419600D02*
X100311278Y-128467219D01*
X100311278Y-128467219D02*
X100358897Y-128419600D01*
X100358897Y-128419600D02*
X100311278Y-128371980D01*
X100311278Y-128371980D02*
X100311278Y-128467219D01*
X98549374Y-128467219D02*
X99120802Y-128467219D01*
X98835088Y-128467219D02*
X98835088Y-127467219D01*
X98835088Y-127467219D02*
X98930326Y-127610076D01*
X98930326Y-127610076D02*
X99025564Y-127705314D01*
X99025564Y-127705314D02*
X99120802Y-127752933D01*
X98120802Y-128371980D02*
X98073183Y-128419600D01*
X98073183Y-128419600D02*
X98120802Y-128467219D01*
X98120802Y-128467219D02*
X98168421Y-128419600D01*
X98168421Y-128419600D02*
X98120802Y-128371980D01*
X98120802Y-128371980D02*
X98120802Y-128467219D01*
X97120803Y-128467219D02*
X97692231Y-128467219D01*
X97406517Y-128467219D02*
X97406517Y-127467219D01*
X97406517Y-127467219D02*
X97501755Y-127610076D01*
X97501755Y-127610076D02*
X97596993Y-127705314D01*
X97596993Y-127705314D02*
X97692231Y-127752933D01*
D11*
X102614285Y-106485912D02*
X102614285Y-104985912D01*
X102614285Y-105700198D02*
X101757142Y-105700198D01*
X101757142Y-106485912D02*
X101757142Y-104985912D01*
X101257141Y-104985912D02*
X100757141Y-106485912D01*
X100757141Y-106485912D02*
X100257141Y-104985912D01*
X98614285Y-106485912D02*
X98614285Y-104985912D01*
X98614285Y-104985912D02*
X98257142Y-104985912D01*
X98257142Y-104985912D02*
X98042856Y-105057341D01*
X98042856Y-105057341D02*
X97899999Y-105200198D01*
X97899999Y-105200198D02*
X97828570Y-105343055D01*
X97828570Y-105343055D02*
X97757142Y-105628769D01*
X97757142Y-105628769D02*
X97757142Y-105843055D01*
X97757142Y-105843055D02*
X97828570Y-106128769D01*
X97828570Y-106128769D02*
X97899999Y-106271626D01*
X97899999Y-106271626D02*
X98042856Y-106414484D01*
X98042856Y-106414484D02*
X98257142Y-106485912D01*
X98257142Y-106485912D02*
X98614285Y-106485912D01*
X97114285Y-105914484D02*
X95971428Y-105914484D01*
X95328570Y-106414484D02*
X95114285Y-106485912D01*
X95114285Y-106485912D02*
X94757142Y-106485912D01*
X94757142Y-106485912D02*
X94614285Y-106414484D01*
X94614285Y-106414484D02*
X94542856Y-106343055D01*
X94542856Y-106343055D02*
X94471427Y-106200198D01*
X94471427Y-106200198D02*
X94471427Y-106057341D01*
X94471427Y-106057341D02*
X94542856Y-105914484D01*
X94542856Y-105914484D02*
X94614285Y-105843055D01*
X94614285Y-105843055D02*
X94757142Y-105771626D01*
X94757142Y-105771626D02*
X95042856Y-105700198D01*
X95042856Y-105700198D02*
X95185713Y-105628769D01*
X95185713Y-105628769D02*
X95257142Y-105557341D01*
X95257142Y-105557341D02*
X95328570Y-105414484D01*
X95328570Y-105414484D02*
X95328570Y-105271626D01*
X95328570Y-105271626D02*
X95257142Y-105128769D01*
X95257142Y-105128769D02*
X95185713Y-105057341D01*
X95185713Y-105057341D02*
X95042856Y-104985912D01*
X95042856Y-104985912D02*
X94685713Y-104985912D01*
X94685713Y-104985912D02*
X94471427Y-105057341D01*
X93828571Y-105700198D02*
X93328571Y-105700198D01*
X93114285Y-106485912D02*
X93828571Y-106485912D01*
X93828571Y-106485912D02*
X93828571Y-104985912D01*
X93828571Y-104985912D02*
X93114285Y-104985912D01*
X91614285Y-106485912D02*
X92114285Y-105771626D01*
X92471428Y-106485912D02*
X92471428Y-104985912D01*
X92471428Y-104985912D02*
X91899999Y-104985912D01*
X91899999Y-104985912D02*
X91757142Y-105057341D01*
X91757142Y-105057341D02*
X91685713Y-105128769D01*
X91685713Y-105128769D02*
X91614285Y-105271626D01*
X91614285Y-105271626D02*
X91614285Y-105485912D01*
X91614285Y-105485912D02*
X91685713Y-105628769D01*
X91685713Y-105628769D02*
X91757142Y-105700198D01*
X91757142Y-105700198D02*
X91899999Y-105771626D01*
X91899999Y-105771626D02*
X92471428Y-105771626D01*
X97507143Y-108900828D02*
X97507143Y-107400828D01*
X96792857Y-108900828D02*
X96792857Y-107400828D01*
%LPC*%
D12*
X156260686Y-128400000D03*
D13*
X152450686Y-128400000D03*
D14*
X114500000Y-100500000D03*
D15*
X114500000Y-108000000D03*
X168540000Y-112700000D03*
X163460000Y-112700000D03*
X102400000Y-113080000D03*
X102400000Y-108000000D03*
D14*
X114700000Y-118800000D03*
D15*
X114700000Y-126300000D03*
D16*
X158750000Y-103331806D03*
D17*
X153670000Y-103331806D03*
D15*
X173115686Y-102300000D03*
X173115686Y-107380000D03*
X138960000Y-130600000D03*
X144040000Y-130600000D03*
D18*
X125855000Y-131525000D03*
D19*
X130935000Y-131525000D03*
X130935000Y-126445000D03*
X125855000Y-126445000D03*
D20*
X162490716Y-120426372D03*
D21*
X165230716Y-120426372D03*
X167970716Y-120426372D03*
D15*
X128500000Y-111840000D03*
X128500000Y-119460000D03*
D22*
X158309799Y-119000000D03*
D23*
X155769799Y-116460000D03*
X153229799Y-119000000D03*
D24*
X103350000Y-131800000D03*
X100850000Y-121800000D03*
X98350000Y-131800000D03*
D25*
X93600000Y-98282323D03*
D26*
X93600000Y-103282323D03*
D27*
X90500000Y-121000000D03*
D17*
X90500000Y-131160000D03*
D25*
X93700000Y-110532323D03*
D26*
X93700000Y-115532323D03*
D28*
X153642183Y-106981806D03*
D17*
X158722183Y-106981806D03*
D20*
X167950016Y-128076372D03*
D21*
X165210016Y-128076372D03*
X162470016Y-128076372D03*
D16*
X167600000Y-96700000D03*
D17*
X162520000Y-96700000D03*
D15*
X174765686Y-117404151D03*
X174765686Y-132404151D03*
X166365686Y-102839151D03*
X166365686Y-107919151D03*
X102500000Y-97410000D03*
X102500000Y-102490000D03*
X137600000Y-96430000D03*
X137600000Y-124370000D03*
X177315686Y-113044151D03*
X177315686Y-107964151D03*
D16*
X158100000Y-96700000D03*
D17*
X153020000Y-96700000D03*
D15*
X145600000Y-124370000D03*
X145600000Y-96430000D03*
D29*
X104925002Y-140650000D03*
X112860716Y-140650000D03*
X120796430Y-140650000D03*
X128732144Y-140650000D03*
X136667858Y-140650000D03*
X144603572Y-140650000D03*
X152539286Y-140650000D03*
X160475000Y-140650000D03*
%LPD*%
M02*
