%TF.GenerationSoftware,KiCad,Pcbnew,10.0.4-1.fc44*%
%TF.CreationDate,2026-06-27T19:13:51+03:00*%
%TF.ProjectId,Error_amp_board,4572726f-725f-4616-9d70-5f626f617264,1.1*%
%TF.SameCoordinates,Original*%
%TF.FileFunction,Drillmap*%
%TF.FilePolarity,Positive*%
%FSLAX45Y45*%
G04 Gerber Fmt 4.5, Leading zero omitted, Abs format (unit mm)*
G04 Created by KiCad (PCBNEW 10.0.4-1.fc44) date 2026-06-27 19:13:51*
%MOMM*%
%LPD*%
G01*
G04 APERTURE LIST*
%ADD10C,0.050000*%
%ADD11C,0.200000*%
G04 APERTURE END LIST*
D10*
X8800000Y-9420000D02*
G75*
G02*
X8850000Y-9370000I50000J0D01*
G01*
X8800000Y-13620000D02*
X8800000Y-9420000D01*
X8850000Y-9370000D02*
X17950000Y-9370000D01*
X8850000Y-13670000D02*
G75*
G02*
X8800000Y-13620000I0J50000D01*
G01*
X10105000Y-13670000D02*
X8850000Y-13670000D01*
X10105000Y-13670000D02*
X10105000Y-14370000D01*
X10205000Y-14470000D02*
G75*
G02*
X10105000Y-14370000I0J100000D01*
G01*
X10205000Y-14470000D02*
X16335000Y-14470000D01*
X16435000Y-14370000D02*
G75*
G02*
X16335000Y-14470000I-100000J0D01*
G01*
X16435000Y-14370000D02*
X16435000Y-13670000D01*
X17950000Y-9370000D02*
G75*
G02*
X18000000Y-9420000I0J-50000D01*
G01*
X17950000Y-13670000D02*
X16435000Y-13670000D01*
X18000000Y-9420000D02*
X18000000Y-13620000D01*
X18000000Y-13620000D02*
G75*
G02*
X17950000Y-13670000I-50000J0D01*
G01*
D11*
X9058277Y-14783984D02*
X9058277Y-14583984D01*
X9058277Y-14583984D02*
X9105896Y-14583984D01*
X9105896Y-14583984D02*
X9134467Y-14593508D01*
X9134467Y-14593508D02*
X9153515Y-14612555D01*
X9153515Y-14612555D02*
X9163039Y-14631603D01*
X9163039Y-14631603D02*
X9172563Y-14669698D01*
X9172563Y-14669698D02*
X9172563Y-14698269D01*
X9172563Y-14698269D02*
X9163039Y-14736365D01*
X9163039Y-14736365D02*
X9153515Y-14755412D01*
X9153515Y-14755412D02*
X9134467Y-14774460D01*
X9134467Y-14774460D02*
X9105896Y-14783984D01*
X9105896Y-14783984D02*
X9058277Y-14783984D01*
X9258277Y-14783984D02*
X9258277Y-14650650D01*
X9258277Y-14688746D02*
X9267801Y-14669698D01*
X9267801Y-14669698D02*
X9277324Y-14660174D01*
X9277324Y-14660174D02*
X9296372Y-14650650D01*
X9296372Y-14650650D02*
X9315420Y-14650650D01*
X9382086Y-14783984D02*
X9382086Y-14650650D01*
X9382086Y-14583984D02*
X9372563Y-14593508D01*
X9372563Y-14593508D02*
X9382086Y-14603031D01*
X9382086Y-14603031D02*
X9391610Y-14593508D01*
X9391610Y-14593508D02*
X9382086Y-14583984D01*
X9382086Y-14583984D02*
X9382086Y-14603031D01*
X9505896Y-14783984D02*
X9486848Y-14774460D01*
X9486848Y-14774460D02*
X9477324Y-14755412D01*
X9477324Y-14755412D02*
X9477324Y-14583984D01*
X9610658Y-14783984D02*
X9591610Y-14774460D01*
X9591610Y-14774460D02*
X9582086Y-14755412D01*
X9582086Y-14755412D02*
X9582086Y-14583984D01*
X9839229Y-14783984D02*
X9839229Y-14583984D01*
X9839229Y-14583984D02*
X9905896Y-14726841D01*
X9905896Y-14726841D02*
X9972563Y-14583984D01*
X9972563Y-14583984D02*
X9972563Y-14783984D01*
X10153515Y-14783984D02*
X10153515Y-14679222D01*
X10153515Y-14679222D02*
X10143991Y-14660174D01*
X10143991Y-14660174D02*
X10124944Y-14650650D01*
X10124944Y-14650650D02*
X10086848Y-14650650D01*
X10086848Y-14650650D02*
X10067801Y-14660174D01*
X10153515Y-14774460D02*
X10134467Y-14783984D01*
X10134467Y-14783984D02*
X10086848Y-14783984D01*
X10086848Y-14783984D02*
X10067801Y-14774460D01*
X10067801Y-14774460D02*
X10058277Y-14755412D01*
X10058277Y-14755412D02*
X10058277Y-14736365D01*
X10058277Y-14736365D02*
X10067801Y-14717317D01*
X10067801Y-14717317D02*
X10086848Y-14707793D01*
X10086848Y-14707793D02*
X10134467Y-14707793D01*
X10134467Y-14707793D02*
X10153515Y-14698269D01*
X10248753Y-14650650D02*
X10248753Y-14850650D01*
X10248753Y-14660174D02*
X10267801Y-14650650D01*
X10267801Y-14650650D02*
X10305896Y-14650650D01*
X10305896Y-14650650D02*
X10324944Y-14660174D01*
X10324944Y-14660174D02*
X10334467Y-14669698D01*
X10334467Y-14669698D02*
X10343991Y-14688746D01*
X10343991Y-14688746D02*
X10343991Y-14745888D01*
X10343991Y-14745888D02*
X10334467Y-14764936D01*
X10334467Y-14764936D02*
X10324944Y-14774460D01*
X10324944Y-14774460D02*
X10305896Y-14783984D01*
X10305896Y-14783984D02*
X10267801Y-14783984D01*
X10267801Y-14783984D02*
X10248753Y-14774460D01*
X10429705Y-14764936D02*
X10439229Y-14774460D01*
X10439229Y-14774460D02*
X10429705Y-14783984D01*
X10429705Y-14783984D02*
X10420182Y-14774460D01*
X10420182Y-14774460D02*
X10429705Y-14764936D01*
X10429705Y-14764936D02*
X10429705Y-14783984D01*
X10429705Y-14660174D02*
X10439229Y-14669698D01*
X10439229Y-14669698D02*
X10429705Y-14679222D01*
X10429705Y-14679222D02*
X10420182Y-14669698D01*
X10420182Y-14669698D02*
X10429705Y-14660174D01*
X10429705Y-14660174D02*
X10429705Y-14679222D01*
M02*
